# xmcd
#
# Track frame offsets:
#  150
#  15402
#  33887
#  50830
#  63237
#  75730
#  92855
#  115115
#  131235
#  144322
#  158682
#  171775
#  191880
#  208477
#  221362
#  234842
#
# Disc length: 3308 seconds
#
# Revision: 4
# Processed by: cddbd v1.5.1PL2 Copyright (c) Steve Scherf et al.
# Submitted via: Collectorz.com_Music_Collector 6.11
#
DISCID=dc0cea10
DTITLE=The Temptations - The Temptations
DYEAR=1998
DGENRE=Blues
TTITLE0=Papa Was A Rollin' Stone
TTITLE1=Ball Of Confusion (That's What The World Is Today)
TTITLE2=Cloud Nine
TTITLE3=I'm Losing You (I Know)
TTITLE4=Beauty Is Only Skin Deep
TTITLE5=Just My Imagination (Running Away With Me)
TTITLE6=Runaway Child (Running Wild)
TTITLE7=Keep On Trucking
TTITLE8=The Way You Do The Things You Do
TTITLE9=I Wish It Would Rain
TTITLE10=Get Ready
TTITLE11=Masterpiece
TTITLE12=Psychedelic Shack
TTITLE13=Ain't Too Proud To Beg
TTITLE14=Superstar (Remember How You Got Where You Are)
TTITLE15=My Girl
EXTD=
EXTT0=
EXTT1=
EXTT2=
EXTT3=
EXTT4=
EXTT5=
EXTT6=
EXTT7=
EXTT8=
EXTT9=
EXTT10=
EXTT11=
EXTT12=
EXTT13=
EXTT14=
EXTT15=
PLAYORDER=
